<svg width="64" height="64" viewBox="0 0 64 64" fill="none" xmlns="http://www.w3.org/2000/svg">
<path d="M53.1646 10.8357C52.5943 10.2654 51.5805 10.2654 51.0102 10.8357L32.0003 29.8456L12.9904 10.8357C12.4201 10.2654 11.4062 10.2654 10.8359 10.8357C10.2656 11.406 10.2656 12.4198 10.8359 12.9901L29.8458 32L10.8359 51.0099C10.2656 51.5802 10.2656 52.5941 10.8359 53.1644C11.1528 53.4812 11.533 53.608 11.9132 53.608C12.2934 53.608 12.6735 53.4812 12.9904 53.1644L32.0003 34.1545L51.0102 53.1644C51.327 53.4812 51.7072 53.608 52.0874 53.608C52.4676 53.608 52.8478 53.4812 53.1646 53.1644C53.7349 52.5941 53.7349 51.5802 53.1646 51.0099L34.1547 32L53.1646 12.9901C53.7349 12.4198 53.7349 11.4693 53.1646 10.8357Z" fill="#983826"/>
</svg>
