<svg width="24" height="24" viewBox="0 0 24 24" fill="none" xmlns="http://www.w3.org/2000/svg">
<path d="M22.4555 5.01012C22.4376 4.96297 22.415 4.91774 22.388 4.87512C22.3773 4.84685 22.3647 4.81929 22.3505 4.79262C22.2806 4.72332 22.2026 4.66286 22.118 4.61262L21.9905 4.56762H21.8405H2.20548C2.15312 4.56209 2.10033 4.56209 2.04798 4.56762L1.92048 4.61262C1.88079 4.63418 1.84314 4.65929 1.80798 4.68762C1.76734 4.71631 1.72965 4.74897 1.69548 4.78512C1.6812 4.81178 1.66868 4.83934 1.65798 4.86762C1.57866 4.94811 1.52401 5.0496 1.50048 5.16012C1.49854 5.19009 1.49854 5.22015 1.50048 5.25012V18.7501C1.50048 18.949 1.57949 19.1398 1.72015 19.2805C1.8608 19.4211 2.05156 19.5001 2.25048 19.5001H21.7505C21.9494 19.5001 22.1402 19.4211 22.2808 19.2805C22.4215 19.1398 22.5005 18.949 22.5005 18.7501V5.25012C22.5024 5.22015 22.5024 5.19009 22.5005 5.16012C22.4908 5.10869 22.4757 5.05841 22.4555 5.01012ZM19.5455 6.00012L12.0005 11.8051L4.45548 6.00012H19.5455ZM21.0005 18.0001H3.00048V6.75012L11.543 13.3201C11.6741 13.4211 11.835 13.4758 12.0005 13.4758C12.166 13.4758 12.3268 13.4211 12.458 13.3201L21.0005 6.75012V18.0001Z" fill="#554B4B"/>
</svg>
