<svg width="72" height="72" viewBox="0 0 72 72" fill="none" xmlns="http://www.w3.org/2000/svg">
<path d="M26.9403 69.4919C26.6639 69.4218 26.448 69.3267 26.2927 69.2068C26.1336 69.0858 26.0029 68.9479 25.9005 68.793L26.0404 68.23C26.1087 68.3118 26.1868 68.4021 26.2749 68.5011C26.3593 68.599 26.4649 68.6923 26.5918 68.7809C26.714 68.8723 26.8716 68.9425 27.0647 68.9915C27.3487 69.0635 27.6184 69.0634 27.8738 68.9912C28.1293 68.9189 28.3496 68.7854 28.5349 68.5906C28.7192 68.3996 28.8468 68.1619 28.9174 67.8776C28.9881 67.5933 28.9869 67.323 28.9137 67.0667C28.8406 66.8104 28.7088 66.5875 28.5184 66.3982C28.3271 66.2127 28.0894 66.0839 27.8054 66.0119C27.5139 65.9379 27.2541 65.9224 27.026 65.9653C26.7933 66.0111 26.5979 66.0683 26.44 66.1371L26.5672 65.6253C26.7289 65.5414 26.9285 65.4832 27.166 65.4508C27.3988 65.4211 27.6534 65.4414 27.9298 65.5115C28.2176 65.5844 28.4699 65.7028 28.6868 65.8666C28.9027 66.0342 29.0789 66.2321 29.2155 66.4601C29.352 66.6882 29.4417 66.9346 29.4845 67.1993C29.5227 67.4669 29.5078 67.7372 29.44 68.0101C29.3721 68.2831 29.2593 68.5265 29.1015 68.7403C28.9389 68.957 28.7441 69.1333 28.5172 69.2692C28.2902 69.405 28.0428 69.4934 27.775 69.5343C27.5063 69.579 27.2281 69.5649 26.9403 69.4919Z" fill="#F2ECE7"/>
<path d="M22.4302 66.7525C22.2474 66.6732 22.0984 66.5596 21.983 66.4116C21.8661 66.2672 21.7981 66.0929 21.7788 65.8887C21.758 65.6881 21.8003 65.4637 21.9058 65.2157L22.6052 63.5711L23.046 63.7624L22.3703 65.3661C22.271 65.5998 22.2472 65.8003 22.2992 65.9676C22.3475 66.1333 22.4774 66.2621 22.6889 66.3538C22.8322 66.416 22.9985 66.4242 23.1877 66.3786C23.3718 66.335 23.5474 66.2664 23.7145 66.1728L24.4758 64.3827L24.9166 64.5739L23.2656 68.4562L22.8248 68.2649L23.5104 66.6527C23.4225 66.6997 23.3185 66.7398 23.1983 66.7728C23.0766 66.8094 22.9495 66.8288 22.817 66.8309C22.681 66.8315 22.552 66.8054 22.4302 66.7525Z" fill="#F2ECE7"/>
<path d="M18.2027 64.4293C18.0613 64.3386 17.94 64.2122 17.8389 64.05C17.7325 63.889 17.6641 63.7152 17.6336 63.5287L17.4248 63.8611L17.0203 63.6019L18.5787 61.1211L18.9833 61.3804L18.7183 61.8021C18.8869 61.7246 19.0764 61.6836 19.2868 61.6793C19.4938 61.6728 19.6911 61.7296 19.8785 61.8497C20.089 61.9846 20.2482 62.1609 20.356 62.3784C20.4617 62.5993 20.5069 62.8394 20.4916 63.0987C20.4731 63.3558 20.3848 63.6101 20.2269 63.8615C20.0544 64.1361 19.8549 64.3399 19.6283 64.473C19.3983 64.604 19.1597 64.6645 18.9123 64.6544C18.6629 64.6476 18.4263 64.5726 18.2027 64.4293ZM18.378 63.9849C18.5556 64.0987 18.735 64.151 18.916 64.1418C19.0971 64.1326 19.2669 64.079 19.4253 63.9811C19.5783 63.8843 19.7058 63.7549 19.8076 63.5928C19.9073 63.434 19.9669 63.2657 19.9863 63.088C20.0037 62.9135 19.9781 62.7486 19.9096 62.5934C19.8377 62.436 19.7229 62.3067 19.565 62.2056C19.4138 62.1086 19.254 62.0619 19.0857 62.0654C18.9174 62.0689 18.7551 62.118 18.5988 62.2126C18.4404 62.3106 18.3077 62.4483 18.2009 62.6257L17.9066 63.1052C17.9275 63.2995 17.9743 63.471 18.047 63.6197C18.1164 63.7662 18.2267 63.888 18.378 63.9849Z" fill="#F2ECE7"/>
<path d="M13.6324 61.926L14.1845 61.2879L13.5431 60.7218L13.8383 60.3806L14.4797 60.9467L15.603 59.6484C15.6822 59.5568 15.7214 59.4638 15.7205 59.3692C15.7197 59.2747 15.6709 59.1848 15.5743 59.0995C15.4864 59.0219 15.4043 58.9677 15.3278 58.9366C15.2488 58.9086 15.1758 58.8884 15.1089 58.8763L15.3657 58.5794C15.4652 58.5838 15.5601 58.6025 15.6505 58.6353C15.7404 58.6626 15.8411 58.7254 15.9524 58.8236C16.1398 58.9891 16.2333 59.1706 16.2328 59.3681C16.2269 59.5661 16.1421 59.7596 15.9785 59.9486L14.8399 61.2647L15.2616 61.6369L15.1696 61.7432C14.9699 61.6816 14.7578 61.6819 14.5334 61.7443C14.3064 61.8097 14.0617 61.9194 13.7994 62.0733L13.6324 61.926Z" fill="#F2ECE7"/>
<path d="M7.10015 52.508L10.1 51.7461L10.263 51.9965L8.97827 53.8137L11.1391 53.3418L11.3022 53.5922L9.42153 56.0727L9.10818 55.5915L10.4663 53.9084L8.33438 54.4033L8.1873 54.1774L9.48148 52.3961L7.4135 52.9892L7.10015 52.508Z" fill="#F2ECE7"/>
<path d="M4.75138 50.7241C4.70464 50.621 4.7032 50.5183 4.74705 50.4163C4.78573 50.3124 4.85295 50.2383 4.94869 50.1941C5.04089 50.1515 5.14034 50.1486 5.24704 50.1853C5.35212 50.2185 5.42803 50.2867 5.47477 50.3899C5.52151 50.4931 5.52376 50.5975 5.48152 50.703C5.43768 50.8051 5.36966 50.8774 5.27746 50.92C5.18172 50.9642 5.08308 50.9689 4.98153 50.9341C4.87484 50.8973 4.79812 50.8273 4.75138 50.7241ZM5.90466 49.8621L8.56418 48.6333L8.76241 49.0709L6.51246 50.1105L6.70343 50.5322L6.29387 50.7214L5.90466 49.8621Z" fill="#F2ECE7"/>
<path d="M3.65828 46.1732L4.46437 45.9239L4.2162 45.1052L4.64724 44.9719L4.8954 45.7906L6.53557 45.2834C6.65125 45.2476 6.73362 45.1894 6.78266 45.1088C6.83171 45.0283 6.83753 44.9263 6.80014 44.8029C6.76614 44.6908 6.72475 44.6014 6.67596 44.5347C6.62344 44.4691 6.57189 44.4135 6.52131 44.3678L6.89636 44.2519C6.97874 44.3082 7.04975 44.3741 7.1094 44.4497C7.17165 44.5204 7.2243 44.6268 7.26736 44.7688C7.33988 45.0081 7.32394 45.2113 7.21952 45.3785C7.11024 45.5432 6.93618 45.6624 6.69734 45.7363L5.03478 46.2504L5.19796 46.7887L5.06361 46.8303C4.92599 46.6725 4.74518 46.5607 4.52119 46.4951C4.29347 46.4306 4.02736 46.3943 3.72287 46.3862L3.65828 46.1732Z" fill="#F2ECE7"/>
<path d="M3.3072 40.8078C3.27747 40.6108 3.29476 40.4243 3.35907 40.2484C3.41952 40.0731 3.53125 39.9235 3.69427 39.7996C3.85343 39.6763 4.06621 39.5941 4.3326 39.5531L6.09889 39.2811L6.1706 39.7562L4.45151 40.0269C4.20056 40.0655 4.01791 40.1509 3.90355 40.2832C3.78861 40.4115 3.74834 40.5896 3.78273 40.8175C3.80605 40.972 3.88728 41.1176 4.02642 41.2543C4.16112 41.3877 4.3125 41.5007 4.48056 41.5934L6.40321 41.2974L6.47492 41.7725L2.30531 42.4145L2.2336 41.9394L3.96515 41.6728C3.87861 41.6229 3.78944 41.5556 3.69765 41.4709C3.602 41.3868 3.51811 41.2891 3.44599 41.1777C3.37328 41.0624 3.32702 40.9391 3.3072 40.8078Z" fill="#F2ECE7"/>
<path d="M2.59024 30.0403L4.95558 30.344C5.29265 30.3873 5.57421 30.4963 5.80025 30.6711C6.0229 30.8414 6.18303 31.055 6.28063 31.3117C6.37824 31.5684 6.40777 31.8499 6.36923 32.156C6.33117 32.4583 6.23285 32.7234 6.07426 32.9511C5.91615 33.175 5.70797 33.3432 5.4497 33.4557C5.18805 33.5639 4.88868 33.5964 4.55161 33.5531L2.18627 33.2493L2.25213 32.7261L4.60004 33.0276C4.8635 33.0614 5.08269 33.0404 5.25761 32.9644C5.43302 32.8845 5.56778 32.7679 5.66189 32.6146C5.75261 32.4569 5.81016 32.2811 5.83456 32.0874C5.85508 31.8931 5.84071 31.7101 5.79147 31.5383C5.73883 31.3622 5.63919 31.2155 5.49253 31.0982C5.34249 30.9766 5.13574 30.8988 4.87228 30.865L2.52437 30.5635L2.59024 30.0403Z" fill="#F2ECE7"/>
<path d="M4.42471 26.7237C4.47279 26.5586 4.54192 26.4121 4.63212 26.2841C4.71857 26.1549 4.79542 26.0657 4.86267 26.0164L5.35693 26.1633C5.27407 26.2242 5.18489 26.3139 5.0894 26.4322C4.9939 26.5505 4.92539 26.6809 4.88387 26.8234C4.83252 26.9997 4.83492 27.1451 4.89107 27.2596C4.94832 27.3703 5.02187 27.439 5.11174 27.4658C5.18288 27.4869 5.263 27.4842 5.35209 27.4577C5.43853 27.4264 5.52279 27.3536 5.60487 27.2394L5.91103 26.817C6.02823 26.6521 6.15984 26.5425 6.30589 26.4881C6.45193 26.4337 6.60545 26.4304 6.76646 26.4783C6.92373 26.525 7.05477 26.6129 7.1596 26.7418C7.26553 26.8671 7.33486 27.0201 7.3676 27.201C7.39769 27.377 7.38324 27.5663 7.32424 27.7688C7.29255 27.8776 7.24425 27.9875 7.17933 28.0986C7.11925 28.2071 7.05683 28.3026 6.99207 28.3852C6.92357 28.4668 6.86779 28.5256 6.82472 28.5617L6.33046 28.4148C6.3832 28.3734 6.44757 28.3131 6.52356 28.2338C6.5969 28.1496 6.66626 28.0582 6.73165 27.9594C6.79329 27.8596 6.83776 27.7628 6.86508 27.669C6.91643 27.4927 6.91754 27.3423 6.86841 27.2177C6.82037 27.0893 6.73831 27.0078 6.62224 26.9733C6.53237 26.9466 6.45085 26.9611 6.37767 27.0168C6.30558 27.0687 6.22608 27.1531 6.13916 27.2699L5.86624 27.6411C5.72049 27.8341 5.57545 27.9479 5.43113 27.9824C5.28306 28.0159 5.12852 28.0086 4.96752 27.9608C4.72788 27.8896 4.55565 27.7406 4.45083 27.5138C4.34601 27.2871 4.3373 27.0237 4.42471 26.7237Z" fill="#F2ECE7"/>
<path d="M7.92155 23.7754C7.96645 23.6714 8.04191 23.6001 8.14795 23.5614C8.25196 23.5176 8.3558 23.5185 8.45948 23.5642C8.55957 23.6082 8.6309 23.6845 8.67347 23.7929C8.71757 23.8976 8.71718 24.002 8.67228 24.106C8.62739 24.21 8.55114 24.2832 8.44356 24.3254C8.33752 24.3641 8.23445 24.3614 8.13436 24.3173C8.03068 24.2716 7.95858 24.1972 7.91804 24.094C7.87548 23.9856 7.87665 23.8794 7.92155 23.7754Z" fill="#F2ECE7"/>
<path d="M9.63068 14.6446C9.80468 14.4187 9.97722 14.2587 10.1483 14.1646C10.3218 14.0674 10.4993 14.0032 10.6811 13.9722L11.1372 14.3306C11.0356 14.36 10.9222 14.3952 10.7971 14.436C10.6744 14.4737 10.5475 14.5329 10.4163 14.6136C10.2844 14.6888 10.1577 14.8053 10.0361 14.9631C9.85734 15.1952 9.74986 15.4436 9.71366 15.7083C9.67746 15.9729 9.71098 16.2302 9.81423 16.4803C9.9144 16.7279 10.0797 16.9422 10.31 17.1232C10.5404 17.3042 10.7867 17.4133 11.049 17.4505C11.3112 17.4876 11.5664 17.4572 11.8146 17.3591C12.0596 17.2585 12.2715 17.0922 12.4503 16.8601C12.6339 16.6218 12.7516 16.3889 12.8035 16.1615C12.8548 15.9285 12.8806 15.7253 12.8811 15.5518L13.2958 15.8776C13.3076 16.0608 13.2808 16.2683 13.2156 16.5002C13.1497 16.7266 13.0298 16.9528 12.8558 17.1787C12.6746 17.4139 12.4663 17.5979 12.2308 17.7308C11.9922 17.8613 11.742 17.9429 11.4802 17.9756C11.2184 18.0083 10.9585 17.9904 10.7006 17.9219C10.4421 17.8479 10.2022 17.724 9.9811 17.5503C9.75995 17.3765 9.58361 17.1734 9.45208 16.9409C9.31986 16.7028 9.23724 16.4516 9.20422 16.1872C9.1712 15.9229 9.1895 15.659 9.25912 15.3958C9.32567 15.1302 9.44952 14.8798 9.63068 14.6446Z" fill="#F2ECE7"/>
<path d="M13.9325 11.574C14.0776 11.4375 14.2403 11.346 14.4207 11.2997C14.5985 11.2504 14.7838 11.2584 14.9768 11.3236C15.1671 11.3859 15.3536 11.5161 15.5363 11.7142L16.7479 13.0279L16.3979 13.3572L15.2139 12.0819C15.0417 11.8953 14.8694 11.7919 14.6969 11.7719C14.5272 11.7492 14.3584 11.8169 14.1905 11.9748C14.0767 12.0819 14.0026 12.232 13.9683 12.4252C13.9341 12.6129 13.926 12.8029 13.944 12.9951L15.2628 14.4252L14.9128 14.7544L12.0528 11.6531L12.4027 11.3239L13.5904 12.6118C13.583 12.5115 13.5883 12.3992 13.6065 12.2749C13.622 12.1477 13.6553 12.0225 13.7064 11.8993C13.7604 11.7734 13.8358 11.665 13.9325 11.574Z" fill="#F2ECE7"/>
<path d="M17.7399 8.59392C17.879 8.49979 18.0424 8.43875 18.2301 8.41079C18.4189 8.37739 18.6039 8.38427 18.7852 8.43141L18.5682 8.10425L18.9661 7.835L20.5854 10.2765L20.1875 10.5458L19.9122 10.1307C19.9144 10.3178 19.8752 10.5095 19.7943 10.7056C19.7168 10.8996 19.5858 11.059 19.4013 11.1838C19.1943 11.3239 18.9705 11.3998 18.7299 11.4117C18.4872 11.4203 18.2515 11.3652 18.0227 11.2464C17.7972 11.1255 17.6024 10.9413 17.4383 10.6939C17.2591 10.4237 17.1549 10.157 17.1256 9.89383C17.0996 9.62846 17.141 9.3835 17.2499 9.15893C17.3566 8.93111 17.5199 8.74277 17.7399 8.59392ZM18.0718 8.9353C17.8971 9.05351 17.7774 9.19815 17.7128 9.36923C17.6481 9.54031 17.6283 9.71882 17.6531 9.90477C17.6791 10.0853 17.745 10.2553 17.8508 10.4148C17.9544 10.5711 18.0829 10.694 18.2361 10.7837C18.3872 10.8701 18.5468 10.913 18.7151 10.9123C18.8866 10.9095 19.0501 10.8555 19.2053 10.7504C19.3542 10.6497 19.4609 10.5209 19.5256 10.364C19.5902 10.2071 19.6112 10.0373 19.5884 9.85456C19.5635 9.66861 19.4923 9.49046 19.3746 9.32012L19.0588 8.85463C18.8743 8.79553 18.7001 8.76958 18.5361 8.77677C18.3754 8.78176 18.2206 8.83461 18.0718 8.9353Z" fill="#F2ECE7"/>
<path d="M21.8533 5.37333L22.2079 6.13898L22.9814 5.77359L23.171 6.183L22.3974 6.54839L23.1188 8.10628C23.1697 8.21617 23.2382 8.28966 23.3242 8.32677C23.4103 8.36388 23.5116 8.35491 23.6281 8.29985C23.7341 8.24979 23.8167 8.19568 23.8758 8.1375C23.9333 8.07577 23.9812 8.01644 24.0194 7.95951L24.1843 8.31575C24.14 8.40584 24.0845 8.48602 24.0181 8.55629C23.9568 8.62845 23.859 8.69622 23.7248 8.75962C23.4988 8.86641 23.2963 8.87998 23.1173 8.80034C22.9403 8.71548 22.7993 8.55963 22.6942 8.33277L21.963 6.75361L21.4544 6.99387L21.3953 6.86626C21.5323 6.70652 21.618 6.5105 21.6525 6.27821C21.6853 6.04237 21.6852 5.77245 21.652 5.46843L21.8533 5.37333Z" fill="#F2ECE7"/>
<path d="M33.0446 3.11403L32.515 6.17567L32.2204 6.22572L31.0892 4.31992L30.6376 6.49464L30.343 6.54469L28.8508 3.82656L29.4169 3.73038L30.396 5.65014L30.8148 3.49287L31.0806 3.44772L32.1752 5.34785L32.4785 3.21021L33.0446 3.11403Z" fill="#F2ECE7"/>
<path d="M35.5892 1.67543C35.7025 1.67384 35.7968 1.71354 35.8721 1.79452C35.9513 1.87154 35.9916 1.96278 35.9931 2.06824C35.9945 2.16979 35.9567 2.26213 35.8797 2.34525C35.8066 2.42831 35.7134 2.47064 35.6001 2.47223C35.4869 2.47382 35.3906 2.43415 35.3114 2.35322C35.236 2.27224 35.1977 2.18097 35.1963 2.07942C35.1948 1.97396 35.2307 1.88165 35.3038 1.80249C35.3808 1.71937 35.4759 1.67702 35.5892 1.67543ZM35.9073 3.07736L35.9476 6.00677L35.4672 6.0135L35.4331 3.53522L34.9703 3.54172L34.9641 3.09059L35.9073 3.07736Z" fill="#F2ECE7"/>
<path d="M40.1598 2.49568L40.0614 3.33368L40.9108 3.43542L40.8582 3.88352L40.0088 3.78177L39.8086 5.48685C39.7944 5.60712 39.8143 5.70589 39.8682 5.78315C39.922 5.86042 40.0129 5.90672 40.1409 5.92205C40.2573 5.93599 40.3558 5.93403 40.4366 5.91616C40.5178 5.89442 40.5896 5.86957 40.6518 5.84162L40.6061 6.23152C40.5212 6.2843 40.4321 6.32281 40.3388 6.34704C40.2489 6.37561 40.1303 6.38107 39.9829 6.36342C39.7347 6.33369 39.5552 6.23744 39.4446 6.07468C39.3382 5.90851 39.2996 5.70128 39.3288 5.45299L39.5317 3.72463L38.9732 3.65772L38.9896 3.51806C39.1897 3.45547 39.3651 3.33485 39.5159 3.15621C39.6671 2.97368 39.808 2.74468 39.9387 2.4692L40.1598 2.49568Z" fill="#F2ECE7"/>
<path d="M45.1711 4.33191C45.3633 4.38436 45.527 4.47557 45.662 4.60555C45.7981 4.73176 45.89 4.89451 45.9378 5.0938C45.9866 5.28932 45.9762 5.51727 45.9065 5.77765L45.4447 7.50407L44.9812 7.37758L45.4252 5.69491C45.4908 5.44962 45.4862 5.24792 45.4112 5.0898C45.34 4.9327 45.1932 4.82382 44.9709 4.76315C44.8201 4.72201 44.6543 4.73748 44.4732 4.80956C44.297 4.87889 44.1327 4.97171 43.9803 5.08803L43.4776 6.96728L43.0141 6.84079L44.1042 2.76532L44.5677 2.8918L44.115 4.58426C44.1955 4.52524 44.2929 4.47085 44.4073 4.42108C44.5227 4.36755 44.6459 4.3303 44.7769 4.30935C44.9116 4.28943 45.043 4.29695 45.1711 4.33191Z" fill="#F2ECE7"/>
<path d="M55.223 8.0353L54.0026 10.0841C53.8286 10.3761 53.617 10.5903 53.3675 10.7266C53.1234 10.8617 52.8649 10.9217 52.5919 10.9067C52.319 10.8917 52.0507 10.804 51.7869 10.6438C51.5266 10.4855 51.3242 10.2871 51.1799 10.0486C51.0389 9.81208 50.9686 9.55226 50.969 9.26913C50.9748 8.98468 51.0646 8.69647 51.2385 8.40449L52.4589 6.35566L52.9096 6.62952L51.6982 8.66325C51.5622 8.89145 51.494 9.10139 51.4935 9.29306C51.4963 9.48675 51.5489 9.65808 51.6511 9.80704C51.7587 9.95468 51.8959 10.0792 52.0628 10.1806C52.2317 10.2787 52.4043 10.3401 52.5805 10.3649C52.762 10.3884 52.9354 10.3567 53.1009 10.2698C53.2716 10.1816 53.425 10.0234 53.5609 9.79518L54.7723 7.76145L55.223 8.0353Z" fill="#F2ECE7"/>
<path d="M57.4735 11.0592C57.6043 11.1708 57.7098 11.2942 57.7902 11.4295C57.873 11.5618 57.9234 11.6689 57.9414 11.751L57.6106 12.1465C57.5883 12.0454 57.5425 11.9267 57.4731 11.7904C57.4037 11.6542 57.3125 11.538 57.1996 11.4416C57.0599 11.3225 56.9268 11.2654 56.8004 11.2705C56.6769 11.2781 56.5851 11.3179 56.5249 11.3898C56.4773 11.4468 56.4478 11.5217 56.4363 11.6146C56.4303 11.707 56.4628 11.8143 56.5338 11.9364L56.7955 12.3907C56.8985 12.5659 56.9456 12.7318 56.9367 12.8886C56.9278 13.0453 56.8695 13.1881 56.7618 13.317C56.6565 13.4428 56.5244 13.5278 56.3654 13.5718C56.2093 13.6184 56.0426 13.6199 55.8651 13.5764C55.6932 13.5323 55.527 13.4419 55.3665 13.305C55.2803 13.2315 55.1997 13.1422 55.1246 13.0371C55.05 12.9375 54.9881 12.8411 54.9389 12.7477C54.8922 12.6514 54.861 12.576 54.8454 12.5216L55.1761 12.126C55.1927 12.1915 55.2218 12.2754 55.2635 12.3777C55.3107 12.4796 55.3661 12.5808 55.4298 12.6813C55.4959 12.7788 55.5661 12.8592 55.6404 12.9226C55.7801 13.0417 55.9164 13.1041 56.0492 13.1096C56.1851 13.1176 56.2918 13.0752 56.3695 12.9823C56.4296 12.9104 56.449 12.8294 56.4276 12.7393C56.4092 12.6517 56.3643 12.544 56.2929 12.4164L56.0645 12.0136C55.9472 11.8006 55.9017 11.6206 55.9279 11.4736C55.9567 11.3235 56.0249 11.1841 56.1326 11.0552C56.293 10.8634 56.4971 10.7654 56.745 10.7613C56.9929 10.7571 57.2357 10.8564 57.4735 11.0592Z" fill="#F2ECE7"/>
<path d="M58.7311 15.4798C58.8074 15.5635 58.8419 15.6622 58.8345 15.7758C58.8326 15.8896 58.7901 15.9851 58.7072 16.0623C58.6271 16.1368 58.5294 16.1717 58.4141 16.1669C58.3014 16.1651 58.2069 16.1223 58.1305 16.0387C58.0542 15.955 58.0184 15.8549 58.0232 15.7384C58.0306 15.6248 58.0743 15.5307 58.1544 15.4562C58.2373 15.379 58.3337 15.3427 58.4435 15.3472C58.5589 15.3519 58.6547 15.3961 58.7311 15.4798Z" fill="#F2ECE7"/>
<path d="M66.2963 20.7481C66.4306 20.9997 66.5057 21.2234 66.5217 21.4193C66.5396 21.6186 66.5258 21.8085 66.4804 21.9889L65.971 22.2663C65.9854 22.1606 65.9994 22.0417 66.0131 21.9098C66.0286 21.7812 66.0264 21.6401 66.0063 21.4865C65.9916 21.3344 65.9373 21.1705 65.8435 20.9947C65.7055 20.7363 65.5239 20.5372 65.2988 20.3974C65.0736 20.2576 64.8268 20.1851 64.5584 20.1801C64.2935 20.1731 64.0324 20.2397 63.7751 20.3798C63.5178 20.5199 63.3192 20.7037 63.1794 20.9311C63.0395 21.1585 62.9638 21.4065 62.9523 21.6752C62.9442 21.9421 63.0091 22.2047 63.1471 22.4631C63.2887 22.7285 63.4521 22.9308 63.6372 23.0702C63.8275 23.2112 64.0012 23.3167 64.1582 23.3869L63.6951 23.6391C63.5244 23.5764 63.3471 23.4684 63.1634 23.3149C62.9849 23.163 62.8285 22.9613 62.6942 22.7097C62.5544 22.4479 62.472 22.1814 62.4469 21.9104C62.4252 21.6376 62.4525 21.3736 62.5289 21.1185C62.6053 20.8634 62.7267 20.6305 62.8931 20.4198C63.0649 20.2106 63.2742 20.0388 63.5212 19.9043C63.7682 19.7698 64.0237 19.6885 64.2876 19.6604C64.5569 19.6338 64.818 19.6584 65.0709 19.7342C65.3239 19.8099 65.5555 19.9328 65.7659 20.1029C65.9797 20.2712 66.1565 20.4862 66.2963 20.7481Z" fill="#F2ECE7"/>
<path d="M67.3332 25.9612C67.3981 26.1496 67.4148 26.3362 67.3835 26.5211C67.3558 26.7047 67.2732 26.8725 67.1354 27.0244C67.0014 27.175 66.8072 27.295 66.5529 27.3843L64.8669 27.9768L64.7104 27.5225L66.3503 26.94C66.5899 26.8559 66.7539 26.7382 66.8423 26.5871C66.932 26.4396 66.9393 26.257 66.8642 26.0391C66.8133 25.8913 66.7072 25.763 66.5457 25.6541C66.3892 25.5477 66.2201 25.4643 66.0382 25.404L64.2029 26.0488L64.0464 25.5946L68.0266 24.196L68.183 24.6503L66.5302 25.2311C66.6242 25.2643 66.724 25.3141 66.8295 25.3805C66.9387 25.4457 67.0388 25.5264 67.1299 25.6228C67.2222 25.7228 67.2899 25.8357 67.3332 25.9612Z" fill="#F2ECE7"/>
<path d="M68.4905 30.6785C68.5195 30.844 68.5084 31.0185 68.4573 31.2023C68.4107 31.3892 68.329 31.5565 68.2121 31.7044L68.5986 31.6353L68.6815 32.1086L65.7974 32.6239L65.7146 32.1506L66.2048 32.063C66.0335 31.9905 65.875 31.8779 65.7293 31.7254C65.5843 31.5767 65.4926 31.3927 65.4542 31.1734C65.4111 30.9271 65.4332 30.691 65.5205 30.4651C65.6117 30.2385 65.758 30.0437 65.9595 29.8808C66.1616 29.7216 66.4088 29.616 66.7011 29.5638C67.0202 29.5067 67.3056 29.5172 67.5572 29.5953C67.8095 29.6772 68.0157 29.813 68.1758 30.0026C68.3398 30.1916 68.4447 30.4169 68.4905 30.6785ZM68.0442 30.8475C68.0078 30.6398 67.9249 30.472 67.7955 30.3444C67.6661 30.2167 67.5116 30.1272 67.3321 30.076C67.1571 30.0279 66.9754 30.0207 66.787 30.0543C66.6024 30.0873 66.438 30.1564 66.2938 30.2615C66.1535 30.3659 66.0493 30.4956 65.9813 30.6506C65.9139 30.8095 65.8964 30.9813 65.9288 31.166C65.9598 31.3429 66.0335 31.4925 66.1501 31.6145C66.2666 31.7365 66.4127 31.8235 66.5884 31.8754C66.7679 31.9267 66.9592 31.9322 67.1623 31.8919L67.7151 31.7872C67.8441 31.6412 67.9389 31.4913 67.9992 31.3377C68.0602 31.1879 68.0752 31.0245 68.0442 30.8475Z" fill="#F2ECE7"/>
<path d="M69.7531 35.7746L68.9095 35.7937L68.9284 36.6489L68.4774 36.6591L68.4585 35.8038L66.7421 35.8425C66.621 35.8452 66.5261 35.8786 66.4571 35.9427C66.3882 36.0068 66.3552 36.1032 66.358 36.2321C66.3606 36.3493 66.3765 36.4466 66.4055 36.5241C66.4385 36.6015 66.4732 36.6691 66.5096 36.7269L66.1172 36.7357C66.0529 36.659 66.0023 36.5762 65.9651 36.4871C65.9242 36.4021 65.9021 36.2854 65.8988 36.137C65.8933 35.887 65.9633 35.696 66.1088 35.5637C66.2584 35.4353 66.4581 35.3683 66.7081 35.3627L68.4479 35.3235L68.4354 34.7611L68.576 34.7579C68.6662 34.9474 68.8103 35.1043 69.0084 35.2288C69.2104 35.3532 69.457 35.4609 69.7481 35.552L69.7531 35.7746Z" fill="#F2ECE7"/>
<path d="M67.2863 46.9952L64.6982 45.2734L64.771 44.9835L66.9702 44.7185L65.1621 43.4265L65.235 43.1366L68.3228 42.8695L68.1828 43.4264L66.0321 43.5466L67.8374 44.8016L67.7717 45.0631L65.5924 45.2969L67.4262 46.4383L67.2863 46.9952Z" fill="#F2ECE7"/>
<path d="M67.5706 49.9602C67.5268 50.0647 67.4528 50.135 67.3486 50.1711C67.2466 50.2123 67.1471 50.2122 67.0501 50.1706C66.9568 50.1306 66.8875 50.0585 66.8424 49.9541C66.7957 49.8534 66.7943 49.7508 66.8382 49.6464C66.8821 49.5419 66.9568 49.4698 67.0625 49.4301C67.1666 49.394 67.2654 49.396 67.3587 49.436C67.4557 49.4775 67.5257 49.5479 67.5687 49.6471C67.6139 49.7514 67.6145 49.8558 67.5706 49.9602ZM66.1624 49.6818L63.4695 48.5278L63.6556 48.0849L65.9337 49.0611L66.113 48.6344L66.5277 48.8121L66.1624 49.6818Z" fill="#F2ECE7"/>
<path d="M64.9849 53.85L64.2602 53.418L63.8285 54.1566L63.441 53.9255L63.8726 53.1869L62.398 52.3078C62.294 52.2458 62.196 52.2238 62.1041 52.2418C62.0121 52.2597 61.9336 52.3244 61.8686 52.4356C61.8095 52.5368 61.772 52.6281 61.756 52.7096C61.7435 52.7931 61.7375 52.8691 61.7381 52.9377L61.4009 52.7366C61.3866 52.6372 61.3871 52.5397 61.4022 52.4441C61.412 52.3499 61.4544 52.2387 61.5293 52.1106C61.6554 51.8947 61.8147 51.7691 62.0073 51.7339C62.2012 51.7039 62.4055 51.753 62.6203 51.881L64.115 52.7721L64.3988 52.2864L64.5196 52.3585C64.4969 52.5677 64.5368 52.778 64.6396 52.9893C64.7457 53.2026 64.8982 53.4254 65.0972 53.6578L64.9849 53.85Z" fill="#F2ECE7"/>
<path d="M61.3023 57.7402C61.178 57.8959 61.0298 58.0094 60.8577 58.0808C60.6887 58.1547 60.5041 58.173 60.3038 58.1358C60.1066 58.101 59.9035 57.9985 59.6946 57.8282L58.3094 56.699L58.6093 56.3237L59.9619 57.4186C60.1587 57.579 60.3439 57.6569 60.5176 57.6524C60.6888 57.6508 60.8463 57.56 60.9902 57.38C61.0877 57.2579 61.1398 57.0988 61.1466 56.9027C61.1538 56.7121 61.135 56.5229 61.0901 56.3351L59.5823 55.106L59.8822 54.7307L63.1522 57.3962L62.8523 57.7715L61.4943 56.6646C61.5158 56.7628 61.5264 56.8747 61.526 57.0004C61.5286 57.1285 61.5133 57.2571 61.4801 57.3863C61.4445 57.5185 61.3852 57.6365 61.3023 57.7402Z" fill="#F2ECE7"/>
<path d="M53.9018 65.5518L52.537 63.5962C52.3425 63.3175 52.2337 63.0354 52.2106 62.7498C52.1865 62.4696 52.2363 62.2064 52.3598 61.9602C52.4833 61.7141 52.6708 61.5015 52.9221 61.3225C53.1703 61.1458 53.4316 61.0389 53.7058 61.0019C53.9769 60.9671 54.2406 61.0071 54.4969 61.1219C54.7523 61.2421 54.9773 61.4416 55.1718 61.7203L56.5366 63.6759L56.107 63.9817L54.7523 62.0406C54.6002 61.8227 54.4375 61.6749 54.2641 61.597C54.0874 61.5214 53.911 61.5007 53.7349 61.535C53.5578 61.5747 53.3898 61.6513 53.2307 61.7645C53.0738 61.881 52.9486 62.0157 52.8552 62.1685C52.7609 62.3268 52.7198 62.4999 52.7319 62.6879C52.743 62.8813 52.8246 63.087 52.9766 63.3048L54.3314 65.246L53.9018 65.5518Z" fill="#F2ECE7"/>
<path d="M50.2533 66.4209C50.0991 66.497 49.9444 66.545 49.7892 66.5649C49.6357 66.5884 49.5181 66.5919 49.4364 66.5756L49.212 66.1114C49.3128 66.1314 49.4389 66.1366 49.5906 66.1272C49.7422 66.1177 49.8846 66.0801 50.0177 66.0145C50.1823 65.9333 50.288 65.8332 50.3347 65.7144C50.3778 65.5973 50.379 65.4965 50.3382 65.4121C50.3059 65.3453 50.25 65.288 50.1704 65.2401C50.0891 65.1975 49.9786 65.1844 49.8391 65.201L49.3212 65.2605C49.1206 65.2854 48.9511 65.2623 48.8126 65.1912C48.6741 65.1201 48.5683 65.009 48.4952 64.8578C48.4238 64.7101 48.4003 64.554 48.4249 64.3894C48.446 64.2266 48.5122 64.0719 48.6236 63.9255C48.7332 63.7843 48.8826 63.6671 49.0718 63.5738C49.1734 63.5236 49.2871 63.485 49.4128 63.4578C49.5333 63.4289 49.6458 63.4104 49.7504 63.4024C49.8567 63.3978 49.9376 63.3993 49.9933 63.4067L50.2177 63.8709C50.1517 63.8599 50.0638 63.8532 49.9541 63.8506C49.8427 63.8534 49.7285 63.864 49.6116 63.8824C49.4964 63.9044 49.395 63.937 49.3074 63.9802C49.1427 64.0614 49.031 64.1623 48.9721 64.2828C48.9097 64.405 48.9049 64.5207 48.9576 64.6297C48.9984 64.7141 49.064 64.7645 49.1544 64.7809C49.2412 64.799 49.357 64.8007 49.5017 64.7859L49.9595 64.7365C50.2001 64.7137 50.3817 64.7439 50.5044 64.8271C50.6288 64.9138 50.7275 65.0328 50.8006 65.184C50.9094 65.4091 50.9155 65.6369 50.8188 65.8676C50.722 66.0982 50.5335 66.2827 50.2533 66.4209Z" fill="#F2ECE7"/>
<path d="M45.7447 65.8168C45.6376 65.8538 45.534 65.8462 45.4339 65.794C45.3313 65.7467 45.2619 65.6695 45.2256 65.5622C45.1905 65.4586 45.1986 65.3545 45.2498 65.2501C45.2974 65.1469 45.3747 65.0768 45.4818 65.0398C45.5889 65.0028 45.6943 65.0098 45.7982 65.0608C45.8983 65.113 45.9659 65.1909 46.001 65.2945C46.0373 65.4018 46.031 65.5052 45.9822 65.6047C45.931 65.7092 45.8518 65.7799 45.7447 65.8168Z" fill="#F2ECE7"/>
<g clip-path="url(#clip0_307_209)">
<path d="M36.004 20H35.996C27.174 20 20 27.176 20 36C19.9945 39.37 21.0613 42.6544 23.046 45.378L21.052 51.322L27.202 49.356C29.8108 51.0867 32.8734 52.0067 36.004 52C44.826 52 52 44.822 52 36C52 27.178 44.826 20 36.004 20V20ZM45.314 42.594C44.928 43.684 43.396 44.588 42.174 44.852C41.338 45.03 40.246 45.172 36.57 43.648C31.868 41.7 28.84 36.922 28.604 36.612C28.378 36.302 26.704 34.082 26.704 31.786C26.704 29.49 27.87 28.372 28.34 27.892C28.726 27.498 29.364 27.318 29.976 27.318C30.174 27.318 30.352 27.328 30.512 27.336C30.982 27.356 31.218 27.384 31.528 28.126C31.914 29.056 32.854 31.352 32.966 31.588C33.08 31.824 33.194 32.144 33.034 32.454C32.884 32.774 32.752 32.916 32.516 33.188C32.28 33.46 32.056 33.668 31.82 33.96C31.604 34.214 31.36 34.486 31.632 34.956C31.904 35.416 32.844 36.95 34.228 38.182C36.014 39.772 37.462 40.28 37.98 40.496C38.366 40.656 38.826 40.618 39.108 40.318C39.466 39.932 39.908 39.292 40.358 38.662C40.678 38.21 41.082 38.154 41.506 38.314C41.938 38.464 44.224 39.594 44.694 39.828C45.164 40.064 45.474 40.176 45.588 40.374C45.7 40.572 45.7 41.502 45.314 42.594V42.594Z" fill="#F2ECE7"/>
</g>
<defs>
<clipPath id="clip0_307_209">
<rect width="32" height="32" fill="white" transform="translate(20 20)"/>
</clipPath>
</defs>
</svg>
