<svg width="64" height="64" viewBox="0 0 64 64" fill="none" xmlns="http://www.w3.org/2000/svg">
<path fill-rule="evenodd" clip-rule="evenodd" d="M8 14.6667C8 13.9303 8.59696 13.3334 9.33333 13.3334H54.6667C55.4031 13.3334 56 13.9303 56 14.6667C56 15.4031 55.4031 16 54.6667 16H9.33333C8.59696 16 8 15.4031 8 14.6667ZM8 32C8 31.2636 8.59696 30.6667 9.33333 30.6667H54.6667C55.4031 30.6667 56 31.2636 56 32C56 32.7364 55.4031 33.3334 54.6667 33.3334H9.33333C8.59696 33.3334 8 32.7364 8 32ZM8 49.3334C8 48.597 8.59696 48 9.33333 48H54.6667C55.4031 48 56 48.597 56 49.3334C56 50.0698 55.4031 50.6667 54.6667 50.6667H9.33333C8.59696 50.6667 8 50.0698 8 49.3334Z" fill="#983826"/>
</svg>
