<svg width="24" height="24" viewBox="0 0 24 24" fill="none" xmlns="http://www.w3.org/2000/svg">
<g clip-path="url(#clip0_29_30)">
<path d="M2.00031 3.5C3.2185 4.9935 4.73978 6.21147 6.46362 7.07338C8.18746 7.9353 10.0746 8.42156 12.0003 8.5C11.7403 7.44 11.7203 4.56 13.7403 3.36C14.5615 2.8202 15.5179 2.5222 16.5003 2.5C17.1414 2.50145 17.7753 2.63545 18.3621 2.89359C18.9489 3.15172 19.476 3.52841 19.9103 4C20.9628 3.77597 21.9746 3.39148 22.9103 2.86C22.5818 3.93319 21.8699 4.84798 20.9103 5.43C21.8261 5.35076 22.7237 5.12804 23.5703 4.77C22.9331 5.71942 22.1263 6.5432 21.1903 7.2C21.9003 13.57 16.1903 21.49 8.07031 21.49C5.43665 21.5044 2.8471 20.8139 0.570312 19.49C1.81163 19.6445 3.07137 19.5471 4.27415 19.2034C5.47692 18.8598 6.598 18.277 7.57031 17.49C6.49457 17.4267 5.45753 17.0659 4.57472 16.448C3.69192 15.83 2.99801 14.9791 2.57031 13.99C3.57031 14.31 4.52031 14.47 5.07031 13.99C3.94678 13.7041 2.94481 13.0649 2.21205 12.1665C1.47929 11.2681 1.05451 10.1581 1.00031 9C1.33069 9.32303 1.7216 9.57765 2.15061 9.74926C2.57962 9.92086 3.03829 10.0061 3.50031 10C2.49407 9.29115 1.78465 8.23604 1.50788 7.03671C1.23111 5.83738 1.40645 4.57811 2.00031 3.5V3.5Z" stroke="#554B4B" stroke-width="1.5" stroke-linecap="round" stroke-linejoin="round"/>
</g>
<defs>
<clipPath id="clip0_29_30">
<rect width="24" height="24" fill="white"/>
</clipPath>
</defs>
</svg>
